<svg id="turnaround" xmlns="http://www.w3.org/2000/svg" viewBox="0 0 23.55 20.14"><defs><style>.cls-1{fill:#ffd900;stroke:#231916;stroke-miterlimit:10;stroke-width:1.2px;}.cls-2{fill:#231916;}</style></defs><title>exclamation</title><path class="cls-1" d="M22.82,1558.56l-10.47-17.5a0.66,0.66,0,0,0-1.14,0L0.7,1558.61a0.72,0.72,0,0,0,0,.7,0.67,0.67,0,0,0,.58.36h21a0.68,0.68,0,0,0,.67-0.69A0.71,0.71,0,0,0,22.82,1558.56Z" transform="translate(0 -1540.13)"/><path class="cls-2" d="M10.88,1552.54l-0.25-3.89q-0.07-1.14-.07-1.63a1.52,1.52,0,0,1,.34-1.05,1.15,1.15,0,0,1,.9-0.38,0.9,0.9,0,0,1,.9.48,3.38,3.38,0,0,1,.23,1.39q0,0.54-.05,1.09l-0.34,4a3.23,3.23,0,0,1-.24,1.1,0.61,0.61,0,0,1-.6.38,0.59,0.59,0,0,1-.59-0.37A3.77,3.77,0,0,1,10.88,1552.54Zm0.87,5.34a1.21,1.21,0,0,1-.83-0.32,1.14,1.14,0,0,1-.36-0.9,1.19,1.19,0,0,1,.34-0.86,1.12,1.12,0,0,1,.83-0.35,1.14,1.14,0,0,1,.84.35,1.18,1.18,0,0,1,.35.86,1.15,1.15,0,0,1-.35.89A1.18,1.18,0,0,1,11.75,1557.88Z" transform="translate(0 -1540.13)"/></svg>