<svg id="Layer_1" data-name="Layer 1" xmlns="http://www.w3.org/2000/svg" viewBox="0 0 25.84 26.28"><defs><style>.cls-1{fill:#9fa0a0;}</style></defs><title>inside-finishing-icon</title><path class="cls-1" d="M383.45,26.19A9,9,0,0,1,376,22.31c-5-6.43,4.5-18.62,6.45-21L383.5,0l1,1.24a53.5,53.5,0,0,1,5,7.78c3.12,6,3.58,10.49,1.36,13.36A8.94,8.94,0,0,1,383.45,26.19Zm0-22C379.9,8.86,375.15,17,378.06,20.8a6.58,6.58,0,0,0,10.73.07C391.72,17.08,386.61,8.47,383.47,4.15Z" transform="translate(-366.42)"/><path class="cls-1" d="M375.16,0.2V0.1l0,0,0,0V0.2c-1,1.27-12.5,15.56-7.31,22.29a9,9,0,0,0,14.69,0C387.66,15.76,376.2,1.47,375.16.2Z" transform="translate(-366.42)"/></svg>