<svg id="Layer_1" data-name="Layer 1" xmlns="http://www.w3.org/2000/svg" viewBox="0 0 31.06 31.06"><defs><style>.cls-1{fill:#00a1e9;}.cls-2{fill:#e4007f;}.cls-3{fill:#ffe200;}.cls-4{fill:#9fa0a0;}</style></defs><title>colour-icon</title><path class="cls-1" d="M384.68,19.87a6,6,0,0,0,8.44,0h0a6,6,0,0,0,0-8.44h0a6,6,0,0,0-8.44,0h0a6,6,0,0,0,0,8.44h0Z" transform="translate(-363.81)"/><path class="cls-2" d="M375.24,29.31a6,6,0,0,0,8.44,0h0a6,6,0,0,0,0-8.44h0a6,6,0,0,0-8.44,0h0a6,6,0,0,0,0,8.44h0Z" transform="translate(-363.81)"/><path class="cls-3" d="M375,10.19a6,6,0,0,0,8.44,0h0a6,6,0,0,0,0-8.44h0a6,6,0,0,0-8.44,0h0a6,6,0,0,0,0,8.44h0Z" transform="translate(-363.81)"/><path class="cls-4" d="M365.56,19.64a6,6,0,0,0,8.44,0h0a6,6,0,0,0,0-8.44h0a6,6,0,0,0-8.44,0h0a6,6,0,0,0,0,8.44h0Z" transform="translate(-363.81)"/></svg>